# xmcd
#
# Track frame offsets: 
#        150
#        31554
#        60085
#        121188
#        153653
#        205690
#
# Disc length: 3276 seconds
#
# Revision: 0
# Processed by: cddbd v1.5.2PL0 Copyright (c) Steve Scherf et al.
# Submitted via: ExactAudioCopy v0.99pb3
#
DISCID=3b0cca06
DTITLE=Cafe R&B - Very Live [CD2]
DYEAR=2005
DGENRE=Blues
TTITLE0=Walkin' thru the Park
TTITLE1=Twenty-Four Hours
TTITLE2=I Just Want to Make Love to You
TTITLE3=Phonecall from Leavenworth
TTITLE4=Evil is Goin' On
TTITLE5=There Was a Time
EXTD=
EXTT0=
EXTT1=
EXTT2=
EXTT3=
EXTT4=
EXTT5=
PLAYORDER=
